<svg width="20" height="20" viewBox="0 0 20 20" fill="none" xmlns="http://www.w3.org/2000/svg">
<path d="M8.07348 10.0042L15.5554 2.52195C15.7614 2.31642 15.8748 2.04163 15.8748 1.74862C15.8748 1.45545 15.7614 1.18081 15.5554 0.974959L14.8998 0.319675C14.6941 0.113496 14.4192 0 14.1262 0C13.8332 0 13.5585 0.113496 13.3527 0.319675L4.44421 9.22797C4.23755 9.43447 4.12437 9.71041 4.12519 10.0037C4.12437 10.2984 4.23738 10.574 4.44421 10.7807L13.3444 19.6803C13.5502 19.8865 13.8249 20 14.118 20C14.411 20 14.6857 19.8865 14.8917 19.6803L15.5471 19.025C15.9736 18.5985 15.9736 17.9042 15.5471 17.4779L8.07348 10.0042Z" fill="black"/>
</svg>
