<svg width="21" height="20" viewBox="0 0 21 20" fill="none" xmlns="http://www.w3.org/2000/svg">
<path d="M6.74967 2.08333C6.74967 1.6231 6.37658 1.25 5.91634 1.25C5.4561 1.25 5.08301 1.6231 5.08301 2.08333V2.91667C5.08301 3.3769 5.4561 3.75 5.91634 3.75C6.37658 3.75 6.74967 3.3769 6.74967 2.91667V2.08333Z" fill="#333333"/>
<path d="M15.9167 2.08333C15.9167 1.6231 15.5436 1.25 15.0833 1.25C14.6231 1.25 14.25 1.6231 14.25 2.08333V2.91667C14.25 3.3769 14.6231 3.75 15.0833 3.75C15.5436 3.75 15.9167 3.3769 15.9167 2.91667V2.08333Z" fill="#333333"/>
<path d="M2.16699 7.5V17.0833C2.16699 18.0037 2.91324 18.75 3.83366 18.75H17.167C18.0874 18.75 18.8337 18.0037 18.8337 17.0833V7.5H2.16699ZM7.16699 15.8333C7.16699 16.2937 6.79408 16.6667 6.33366 16.6667H5.50033C5.03991 16.6667 4.66699 16.2937 4.66699 15.8333V15C4.66699 14.5396 5.03991 14.1667 5.50033 14.1667H6.33366C6.79408 14.1667 7.16699 14.5396 7.16699 15V15.8333ZM7.16699 11.25C7.16699 11.7104 6.79408 12.0833 6.33366 12.0833H5.50033C5.03991 12.0833 4.66699 11.7104 4.66699 11.25V10.4167C4.66699 9.95625 5.03991 9.58333 5.50033 9.58333H6.33366C6.79408 9.58333 7.16699 9.95625 7.16699 10.4167V11.25ZM11.7503 15.8333C11.7503 16.2937 11.3774 16.6667 10.917 16.6667H10.0837C9.62324 16.6667 9.25033 16.2937 9.25033 15.8333V15C9.25033 14.5396 9.62324 14.1667 10.0837 14.1667H10.917C11.3774 14.1667 11.7503 14.5396 11.7503 15V15.8333ZM11.7503 11.25C11.7503 11.7104 11.3774 12.0833 10.917 12.0833H10.0837C9.62324 12.0833 9.25033 11.7104 9.25033 11.25V10.4167C9.25033 9.95625 9.62324 9.58333 10.0837 9.58333H10.917C11.3774 9.58333 11.7503 9.95625 11.7503 10.4167V11.25ZM16.3337 15.8333C16.3337 16.2937 15.9607 16.6667 15.5003 16.6667H14.667C14.2066 16.6667 13.8337 16.2937 13.8337 15.8333V15C13.8337 14.5396 14.2066 14.1667 14.667 14.1667H15.5003C15.9607 14.1667 16.3337 14.5396 16.3337 15V15.8333ZM16.3337 11.25C16.3337 11.7104 15.9607 12.0833 15.5003 12.0833H14.667C14.2066 12.0833 13.8337 11.7104 13.8337 11.25V10.4167C13.8337 9.95625 14.2066 9.58333 14.667 9.58333H15.5003C15.9607 9.58333 16.3337 9.95625 16.3337 10.4167V11.25Z" fill="#333333"/>
<path d="M18.8337 6.66667V4.16667C18.8337 3.24625 18.0874 2.5 17.167 2.5H16.7503V2.91667C16.7503 3.83583 16.0028 4.58333 15.0837 4.58333C14.1645 4.58333 13.417 3.83583 13.417 2.91667V2.5H7.58366V2.91667C7.58366 3.83583 6.83616 4.58333 5.91699 4.58333C4.99783 4.58333 4.25033 3.83583 4.25033 2.91667V2.5H3.83366C2.91324 2.5 2.16699 3.24625 2.16699 4.16667V6.66667H18.8337Z" fill="#333333"/>
</svg>
